# Written by ObjEditor
mtllib bottom.mtl
o bottom
v -0.4 0.1 0.4
v 0.4 0.1 0.4
v 0.4 0 0.4
v -0.4 0 0.4
v 0.4 0.1 -0.4
v -0.4 0.1 -0.4
v -0.4 0 -0.4
v 0.4 0 -0.4
vt 0.2514916813546982 0.5109868185575374
vt 0.5025086739274498 0.5123222076667795
vt 0.5009531470951443 0.48628023794424124
vt 0.250930501308242 0.4857337164670098
vt 0.7503343659251894 0.5167008578646548
vt 1 0.5159148935643935
vt 1 0.48426924172469543
vt 0.7503343659251894 0.4833130048054626
vt 0 0.513443112449703
vt 0.251006455021041 0.5123378454866955
vt 0.251006455021041 0.48535704178915706
vt 0 0.4858757695413486
vt 0.500357938814519 0.5141139995186317
vt 0.7500059858713517 0.5157023295187266
vt 0.7500059858713517 0.4836438589312746
vt 0.5000646692091109 0.4830274213453809
vt 0.25 0.764
vt 0.502 0.764
vt 0.502 0.51
vt 0.24901270929811162 0.51
vt 0.25 0.476190476190476
vt 0.5 0.476190476190476
vt 0.5 0.236
vt 0.25 0.236
usemtl material1
s 1
f 1/1 2/2 3/3 4/4
f 5/5 6/6 7/7 8/8
f 6/9 1/10 4/11 7/12
f 2/13 5/14 8/15 3/16
f 6/17 5/18 2/19 1/20
f 3/21 8/22 7/23 4/24
